<svg width="295" height="203" viewBox="0 0 295 203" fill="none" xmlns="http://www.w3.org/2000/svg">
<circle cx="180" cy="177" r="6" fill="black"/>
<path d="M295 -1.60304C283.201 81.5921 186.211 170.109 146.376 170.109C121.262 168.299 68.5166 170.109 54.9063 170.109C30.5954 170.109 1.83271 186.764 -3.22272 197.258V202.583C-4.29507 201.167 -4.22248 199.333 -3.22272 197.258V57.8065C21.566 15.6652 54.127 -9.33606 63.5662 -1.60304H295Z" fill="#BBE7D3"/>
<path d="M-3 35C-3 12.9086 14.9086 -5 37 -5H92V102H-3V35Z" fill="#BBE7D3"/>
<circle cx="72.5" cy="56.5" r="6.5" fill="black"/>
<circle cx="114" cy="75" r="6" fill="black"/>
<circle cx="60.5" cy="86.5" r="5.5" fill="black"/>
<circle cx="148.5" cy="44.5" r="3.5" fill="black"/>
<circle cx="120" cy="96" r="4" fill="black"/>
<circle cx="74" cy="149" r="8" fill="black"/>
<circle cx="103.5" cy="20.5" r="2.5" fill="black"/>
<circle cx="136.5" cy="153.5" r="5.5" fill="black"/>
</svg>
