<svg width="158" height="406" viewBox="0 0 158 406" fill="none" xmlns="http://www.w3.org/2000/svg">
<path d="M80.9684 405.982C59.554 394.044 46.2227 377.745 41.3447 357.539C37.7228 342.537 38.7636 325.655 44.4378 307.363C48.6443 293.876 54.9511 281.137 63.1258 269.615C106.494 208.228 110.408 168.228 106.055 145.482C101.282 120.542 85.7757 110.184 85.6195 110.082L86.2889 109.053C86.449 109.157 102.364 119.755 107.252 145.202C110.07 159.872 108.744 176.6 103.312 194.92C96.5513 217.721 83.3682 243.09 64.1289 270.323C56.0286 281.74 49.7791 294.363 45.6106 307.726C36.3042 337.728 34.9876 378.943 81.5662 404.909L80.9684 405.982Z" fill="#2F2E41"/>
<path d="M41.8572 292.314C24.9748 282.904 25.4449 267.989 28.812 257.135C30.3049 252.347 32.5435 247.825 35.4453 243.735C50.6384 222.229 52.0114 208.259 50.4879 200.326C48.8331 191.712 43.5249 188.176 43.4716 188.141L44.1407 187.111C44.3767 187.265 49.9415 190.972 51.6937 200.095C53.9753 211.974 48.8461 226.895 36.4484 244.444C33.6209 248.428 31.4396 252.834 29.9848 257.498C26.7523 267.919 26.2918 282.232 42.4551 291.242L41.8572 292.314Z" fill="#2F2E41"/>
<path d="M117.813 156.018L117.215 154.945C133.378 145.935 132.918 131.622 129.685 121.201C128.231 116.537 126.049 112.131 123.222 108.147C110.824 90.598 105.695 75.6767 107.977 63.7979C109.729 54.6753 115.294 50.9676 115.53 50.8145L116.2 51.8433C116.146 51.8786 110.811 55.4616 109.173 64.0779C107.666 72.0062 109.054 85.9645 124.225 107.438C127.127 111.528 129.365 116.05 130.858 120.837C134.225 131.692 134.695 146.606 117.813 156.018Z" fill="#2F2E41"/>
<path d="M153.858 94.9281C151.188 99.017 147.003 101.878 142.224 102.882C137.445 103.886 132.463 102.952 128.373 100.283C124.283 97.6149 121.42 93.4315 120.414 88.6528C119.407 83.8742 120.34 78.8915 123.007 74.8003C128.565 66.2808 156.548 57.0977 156.548 57.0977C156.548 57.0977 159.416 86.4087 153.858 94.9281Z" fill="#FFC64A"/>
<path d="M147.105 37.8305C144.434 41.9181 140.25 44.778 135.471 45.7815C130.693 46.785 125.711 45.85 121.622 43.1821C117.532 40.5141 114.67 36.3315 113.663 31.5537C112.656 26.7759 113.588 21.7938 116.253 17.7026C121.811 9.18315 149.794 0 149.794 0C149.794 0 152.663 29.311 147.105 37.8305Z" fill="#FFC64A"/>
<path d="M117.418 247.014C113.097 247.021 108.902 245.557 105.524 242.864C102.145 240.17 99.7833 236.407 98.8273 232.193C97.8714 227.979 98.3779 223.565 100.264 219.677C102.149 215.789 105.302 212.658 109.203 210.8C118.474 206.383 146.28 212.849 147.46 213.127L148.205 213.302L147.872 213.992C147.344 215.082 134.845 240.748 125.574 245.165C123.027 246.382 120.241 247.014 117.418 247.014V247.014ZM118.967 210.49C115.196 210.49 111.891 210.88 109.731 211.909C105.471 213.941 102.191 217.582 100.615 222.031C99.0377 226.481 99.2923 231.374 101.322 235.636C103.352 239.898 106.992 243.179 111.44 244.758C115.889 246.337 120.783 246.085 125.045 244.057C133.111 240.214 144.329 218.346 146.423 214.151C143.072 213.407 129.279 210.49 118.967 210.49V210.49Z" fill="#FFC64A"/>
<path d="M79.8846 78.0295C81.6719 79.6592 83.1207 81.625 84.1483 83.8146C85.1759 86.0042 85.7621 88.3748 85.8736 90.7909C85.985 93.2071 85.6195 95.6216 84.7978 97.8965C83.9762 100.171 82.7144 102.262 81.0848 104.05C79.4551 105.837 77.4893 107.286 75.2997 108.313C73.1101 109.341 70.7395 109.927 68.3233 110.039C65.9072 110.15 63.4927 109.784 61.2178 108.963C58.9429 108.141 56.8521 106.879 55.0648 105.25C47.5482 98.3959 42.9766 69.3018 42.9766 69.3018C42.9766 69.3018 72.3679 71.1757 79.8846 78.0295Z" fill="#FFC64A"/>
<path d="M36.9081 155.387C40.5177 158.678 42.672 163.269 42.8971 168.148C43.1222 173.028 41.3996 177.797 38.1083 181.407C34.817 185.017 30.2266 187.171 25.3469 187.396C20.4672 187.621 15.6979 185.898 12.0883 182.607C4.57161 175.753 0 146.659 0 146.659C0 146.659 29.3915 148.533 36.9081 155.387Z" fill="#FFC64A"/>
<path d="M85.0802 166.236C78.9326 166.236 67.1773 160.414 66.638 160.145L65.9524 159.804L66.4353 159.209C66.8481 158.701 76.6057 146.746 82.0938 145.558C84.8169 144.97 87.6621 145.487 90.0038 146.997C92.3455 148.506 93.9921 150.883 94.5815 153.606C95.1709 156.329 94.655 159.174 93.147 161.517C91.6391 163.859 89.2626 165.507 86.5401 166.098C86.0597 166.195 85.5703 166.241 85.0802 166.236V166.236ZM67.8854 159.385C70.7807 160.767 81.8692 165.853 86.2805 164.897C88.6837 164.374 90.7811 162.919 92.1118 160.85C93.4425 158.782 93.8976 156.27 93.3772 153.866C92.8568 151.463 91.4034 149.364 89.3363 148.031C87.2693 146.698 84.7577 146.24 82.3534 146.758C77.9406 147.714 69.9497 156.93 67.8854 159.385V159.385Z" fill="#FFC64A"/>
</svg>
