<svg width="367" height="441" viewBox="0 0 367 441" fill="none" xmlns="http://www.w3.org/2000/svg">
<path d="M366.39 207.117L66.4578 117.219L15.1629 288.357L315.095 378.255L366.39 207.117Z" fill="#FFF4E8"/>
<path d="M168.376 49.0503H56.7329V175.751H168.376V49.0503Z" fill="#2F2E41"/>
<path d="M230.837 425.047H68.2227V364.739C68.2496 350.579 70.7685 336.533 75.6641 323.246C75.9119 322.567 76.1596 321.9 76.418 321.232C83.6227 302.504 92.9918 291.509 92.9918 291.509C158.684 328.124 198.53 294.74 198.53 294.74L205.659 323.494L206.176 325.583L225.14 402.065L225.657 404.165L230.837 425.047Z" fill="#2F2E41"/>
<path d="M206.176 325.583C181.708 331.538 160.03 333.584 141.755 333.584C130.378 333.61 119.016 332.771 107.767 331.075C96.852 329.438 86.1073 326.818 75.6641 323.246C75.9119 322.567 76.1595 321.9 76.418 321.232C86.7619 324.769 97.4063 327.357 108.219 328.964C130.436 332.367 163.95 333.638 205.659 323.494L206.176 325.583Z" fill="#3F3D56"/>
<path d="M225.657 404.165C193.124 414.342 164.736 417.584 141.755 417.584C130.378 417.61 119.016 416.771 107.767 415.075C89.2657 412.221 75.7719 407.558 68.2227 404.445V402.109C75.4487 405.167 89.1149 410.035 108.219 412.964C133.796 416.884 174.353 417.972 225.14 402.065L225.657 404.165Z" fill="#3F3D56"/>
<path d="M230.299 153.125L207.371 192.712V192.723L206.607 194.048L153.838 241.432L89.2225 197.279L61.2227 161.74C61.2227 161.74 65.5303 147.74 80.6072 145.586C84.581 145.016 87.9518 144.456 91.0209 143.81C93.1102 143.368 95.0593 142.894 96.9655 142.356C102.878 140.687 108.338 138.414 116.146 134.817C130.145 128.356 111.838 107.894 111.838 107.894L149.53 84.2021C149.53 84.2021 166.265 138.587 195.611 138.102C196.042 138.102 196.473 138.08 196.914 138.048C198.53 137.93 200.07 137.876 201.534 137.865C227.402 137.693 230.299 153.125 230.299 153.125Z" fill="#FFB8B8"/>
<path d="M98.9149 183.279L91.021 143.81C93.1103 143.368 95.0594 142.894 96.9656 142.356L98.9149 183.279Z" fill="#3F3D56"/>
<path d="M201.534 137.865L194.222 177.356L195.611 138.102C196.042 138.102 196.473 138.08 196.914 138.048C198.53 137.93 200.07 137.876 201.534 137.865Z" fill="#3F3D56"/>
<path d="M113.992 112.202C136.593 112.202 154.915 93.8802 154.915 71.2791C154.915 48.678 136.593 30.3562 113.992 30.3562C91.3907 30.3562 73.0688 48.678 73.0688 71.2791C73.0688 93.8802 91.3907 112.202 113.992 112.202Z" fill="#FFB8B8"/>
<path d="M67.6842 155.279L61.2227 161.74C61.2227 161.74 51.5304 248.971 61.2227 290.971L106.453 407.278C106.453 407.278 118.299 448.201 144.145 439.585C169.991 430.97 122.607 383.586 122.607 383.586L89.2226 292.047V177.894L67.6842 155.279Z" fill="#FFB8B8"/>
<path d="M214.145 143.433L230.299 153.125C230.299 153.125 244.299 201.586 232.453 268.355L214.145 395.432C214.145 395.432 203.376 443.893 180.761 432.047C158.145 420.201 195.837 380.355 195.837 380.355L205.53 281.278L207.684 177.894L214.145 143.433Z" fill="#FFB8B8"/>
<path d="M148.453 217.74L97.8379 175.74L87.0687 201.586C87.0687 201.586 76.2995 309.278 84.9149 307.124C93.5302 304.971 94.6071 295.278 102.146 302.817C109.684 310.355 157.068 321.124 163.53 314.663C169.991 308.201 201.222 298.509 201.222 298.509C201.222 298.509 214.145 288.817 209.837 275.894C205.53 262.971 209.837 260.817 210.914 255.432C211.991 250.048 210.914 192.971 210.914 192.971L195.837 167.125L148.453 217.74Z" fill="#3F3D56"/>
<path d="M149.805 146.151C159.365 144.964 167.656 138.887 174.446 128.091L172.623 126.945C166.196 137.163 158.433 142.905 149.552 144.013C133.769 145.98 119.533 132.599 119.391 132.464L117.904 134.022C118.47 134.562 131.026 146.369 146.27 146.369C146.279 146.369 146.289 146.368 146.299 146.368V163.41C144.973 163.544 143.744 164.166 142.85 165.155C141.956 166.143 141.461 167.429 141.46 168.762C141.46 170.095 141.954 171.38 142.847 172.37C143.741 173.359 144.969 173.982 146.295 174.117C147.621 174.252 148.95 173.89 150.025 173.102C151.1 172.313 151.843 171.154 152.112 169.848C152.381 168.542 152.155 167.184 151.479 166.035C150.803 164.886 149.725 164.029 148.453 163.63V146.276C148.903 146.242 149.353 146.208 149.805 146.151Z" fill="#6C63FF"/>
<path d="M112.376 0.74111C112.376 0.74111 70.9668 5.91839 61.696 30.9C52.4253 55.8817 36.2014 68.9971 36.2014 68.9971C36.2014 68.9971 10.6448 86.7618 23.4231 118.475C23.4231 118.475 -16.3331 145.191 9.93414 168.924C9.93414 168.924 8.38902 192.656 23.8403 208.894C23.8403 208.894 36.2014 215.14 31.566 218.887C26.9306 222.634 62.4686 220.136 59.3784 186.411C56.2881 152.686 77.1474 128.929 77.1474 128.929C77.1474 128.929 57.0607 85.2031 66.3315 70.2141C71.9602 61.1137 74.3774 54.3272 79.05 50.3995C81.6521 48.2644 84.0654 45.9092 86.2632 43.3599C89.1407 39.9412 94.9651 35.285 104.187 37.77C108.122 38.7778 111.766 40.6949 114.826 43.3671C124.063 51.5642 134.06 58.8637 144.68 65.1671C149.674 68.1307 154.905 71.4797 159.761 75.0485C168.753 81.6572 161.324 95.6629 152.333 107.388C139.03 124.737 138.767 149.107 152.681 165.969C153.09 166.464 153.507 166.951 153.932 167.427C167.538 182.664 150.011 195.945 148.996 197.653C146.678 201.55 137.422 226.163 175.657 226.272C175.657 226.272 184.534 207.645 196.895 196.403C209.256 185.162 199.985 152.686 199.985 152.686C199.985 152.686 218.527 141.444 198.44 113.964C198.44 113.964 209.065 80.5174 192.068 64.2793C192.068 64.2793 164.911 -8.00245 112.376 0.74111Z" fill="#2F2E41"/>
<path d="M158.684 80.4331C161.658 80.4331 164.069 76.8169 164.069 72.3562C164.069 67.8954 161.658 64.2793 158.684 64.2793C155.71 64.2793 153.299 67.8954 153.299 72.3562C153.299 76.8169 155.71 80.4331 158.684 80.4331Z" fill="#FFB8B8"/>
<path d="M159.222 106.305C152.973 106.305 147.888 99.7715 147.888 91.7407C147.888 83.7097 152.973 77.176 159.222 77.176C159.372 77.176 159.515 77.2355 159.621 77.3414C159.727 77.4473 159.787 77.5909 159.787 77.7407C159.787 77.8905 159.727 78.0341 159.621 78.14C159.515 78.2459 159.372 78.3054 159.222 78.3054C153.595 78.3054 149.018 84.3325 149.018 91.7407C149.018 99.1489 153.595 105.176 159.222 105.176C164.849 105.176 169.427 99.1489 169.427 91.7407C169.427 85.1359 167.059 80.3046 163.092 78.8168C162.952 78.7639 162.839 78.6577 162.777 78.5214C162.716 78.3852 162.71 78.23 162.763 78.09C162.816 77.95 162.922 77.8365 163.058 77.7745C163.194 77.7125 163.349 77.707 163.489 77.7592C167.914 79.4192 170.556 84.646 170.556 91.7407C170.556 99.7715 165.472 106.305 159.222 106.305Z" fill="#6C63FF"/>
<path d="M163.781 74.9683C163.447 76.7402 162.524 78.3473 161.162 79.5289Z" fill="#FFB8B8"/>
<path d="M123.586 383.177L101.292 394.155L101.835 395.257L124.129 384.279L123.586 383.177Z" fill="#6C63FF"/>
<path d="M112.805 393.549C115.518 393.549 117.716 391.35 117.716 388.637C117.716 385.925 115.518 383.726 112.805 383.726C110.092 383.726 107.893 385.925 107.893 388.637C107.893 391.35 110.092 393.549 112.805 393.549Z" fill="#6C63FF"/>
<path d="M327.528 299.571L292.131 302.099C277.071 302.099 262.484 284.719 272.069 282.037C278.775 280.161 292.131 285.786 292.131 287.588C284.052 273.133 289.515 261.546 294.66 264.448C308.95 275.918 335.531 298.999 327.528 299.571Z" stroke="white" stroke-width="5"/>
</svg>
